<svg xmlns="http://www.w3.org/2000/svg" height="512pt" version="1.1" viewBox="0 0 512 512" width="512pt">
<g id="surface1">
<path d="M 278 89.609375 L 194.359375 96 L 194.359375 158.734375 C 194.359375 187.71875 211.496094 212.6875 236.179688 224.101562 C 260.863281 212.6875 278 187.71875 278 158.734375 Z M 278 89.609375 " style=" stroke:none;fill-rule:nonzero;fill:rgb(98.823529%,77.647059%,61.568627%);fill-opacity:1;" />
<path d="M 278 43.839844 L 278 10 L 246.871094 10 C 217.871094 10 194.359375 33.507812 194.359375 62.507812 L 194.359375 101.191406 L 220.644531 101.191406 C 252.320312 101.191406 278 75.515625 278 43.839844 Z M 278 43.839844 " style=" stroke:none;fill-rule:nonzero;fill:rgb(100%,72.54902%,32.941176%);fill-opacity:1;" />
<path d="M 318.953125 230.734375 L 191.789062 230.734375 C 139.988281 230.734375 98 272.726562 98 324.523438 L 98 448 L 402 448 L 402 313.78125 C 402 267.917969 364.816406 230.734375 318.953125 230.734375 Z M 318.953125 230.734375 " style=" stroke:none;fill-rule:nonzero;fill:rgb(44.705882%,84.705882%,100%);fill-opacity:1;" />
<path d="M 360.5 398 C 360.5 352.191406 390.117188 313.300781 431.25 299.429688 C 420.808594 295.910156 409.628906 294 398 294 C 340.5625 294 294 340.5625 294 398 C 294 455.4375 340.5625 502 398 502 C 409.628906 502 420.808594 500.089844 431.25 496.570312 C 390.117188 482.699219 360.5 443.808594 360.5 398 Z M 360.5 398 " style=" stroke:none;fill-rule:nonzero;fill:rgb(100%,100%,100%);fill-opacity:1;" />
<path d="M 502 398 C 502 352.191406 472.382812 313.300781 431.25 299.429688 C 390.117188 313.300781 360.5 352.191406 360.5 398 C 360.5 443.808594 390.117188 482.699219 431.25 496.570312 C 472.382812 482.699219 502 443.808594 502 398 Z M 502 398 " style=" stroke:none;fill-rule:nonzero;fill:rgb(100%,36.470588%,36.470588%);fill-opacity:1;" />
<path d="M 203.25 307.113281 L 152.195312 230.734375 L 259.804688 230.734375 Z M 203.25 307.113281 " style=" stroke:none;fill-rule:nonzero;fill:rgb(100%,100%,100%);fill-opacity:1;" />
<path d="M 259.808594 438 C 257.171875 438 254.601562 439.070312 252.742188 440.929688 C 250.871094 442.789062 249.808594 445.371094 249.808594 448 C 249.808594 450.628906 250.871094 453.210938 252.742188 455.070312 C 254.589844 456.929688 257.171875 458 259.808594 458 C 262.441406 458 265.019531 456.929688 266.871094 455.070312 C 268.742188 453.210938 269.808594 450.628906 269.808594 448 C 269.808594 445.371094 268.742188 442.789062 266.871094 440.929688 C 265.011719 439.070312 262.4375 438 259.808594 438 Z M 259.808594 438 " style=" stroke:none;fill-rule:nonzero;fill:rgb(0%,0%,0%);fill-opacity:1;" />
<path d="M 214.960938 438 L 81.632812 438 L 81.632812 330.050781 C 81.632812 324.527344 77.15625 320.050781 71.632812 320.050781 C 66.109375 320.050781 61.632812 324.527344 61.632812 330.050781 L 61.632812 438 L 20 438 L 20 324.523438 C 20 278.320312 57.585938 240.734375 103.789062 240.734375 L 146.851562 240.734375 L 193.25 310.148438 L 193.25 365 C 193.25 370.523438 197.730469 375 203.25 375 C 208.773438 375 213.25 370.523438 213.25 365 L 213.25 310.414062 L 264.84375 240.734375 L 318.953125 240.734375 C 338.960938 240.734375 357.632812 248.664062 371.527344 263.066406 C 375.359375 267.042969 381.691406 267.15625 385.664062 263.320312 C 389.640625 259.484375 389.753906 253.15625 385.917969 249.179688 C 368.21875 230.835938 344.4375 220.734375 318.953125 220.734375 L 259.574219 220.734375 C 276.964844 205.6875 288 183.480469 288 158.734375 L 288 10 C 288 4.476562 283.523438 0 278 0 L 186.511719 0 C 152.039062 0 124 28.042969 124 62.507812 L 124 158.734375 C 124 183.484375 135.035156 205.6875 152.425781 220.734375 L 103.789062 220.734375 C 46.558594 220.734375 0 267.292969 0 324.523438 L 0 448 C 0 453.523438 4.476562 458 10 458 L 214.960938 458 C 220.480469 458 224.960938 453.523438 224.960938 448 C 224.960938 442.476562 220.480469 438 214.960938 438 Z M 144 62.507812 C 144 39.070312 163.070312 20 186.507812 20 L 268 20 L 268 43.839844 C 268 69.949219 246.757812 91.191406 220.644531 91.191406 L 144 91.191406 Z M 144 158.734375 L 144 111.191406 L 220.644531 111.191406 C 239.09375 111.191406 255.824219 103.734375 268 91.683594 L 268 158.734375 C 268 192.921875 240.1875 220.734375 206 220.734375 C 171.8125 220.734375 144 192.921875 144 158.734375 Z M 239.957031 240.734375 L 203.667969 289.746094 L 170.90625 240.734375 Z M 239.957031 240.734375 " style=" stroke:none;fill-rule:nonzero;fill:rgb(0%,0%,0%);fill-opacity:1;" />
<path d="M 398 284 C 335.140625 284 284 335.140625 284 398 C 284 460.859375 335.140625 512 398 512 C 460.859375 512 512 460.859375 512 398 C 512 335.140625 460.859375 284 398 284 Z M 398 492 C 346.167969 492 304 449.832031 304 398 C 304 346.167969 346.167969 304 398 304 C 449.832031 304 492 346.167969 492 398 C 492 449.832031 449.832031 492 398 492 Z M 398 492 " style=" stroke:none;fill-rule:nonzero;fill:rgb(0%,0%,0%);fill-opacity:1;" />
<path d="M 443.667969 388 L 408 388 L 408 352.332031 C 408 346.8125 403.523438 342.332031 398 342.332031 C 392.476562 342.332031 388 346.8125 388 352.332031 L 388 388 L 352.332031 388 C 346.8125 388 342.332031 392.476562 342.332031 398 C 342.332031 403.523438 346.8125 408 352.332031 408 L 388 408 L 388 443.667969 C 388 449.1875 392.476562 453.667969 398 453.667969 C 403.523438 453.667969 408 449.1875 408 443.667969 L 408 408 L 443.667969 408 C 449.1875 408 453.667969 403.523438 453.667969 398 C 453.667969 392.476562 449.1875 388 443.667969 388 Z M 443.667969 388 " style=" stroke:none;fill-rule:nonzero;fill:rgb(0%,0%,0%);fill-opacity:1;" />
</g>
</svg>